#!OML:ASF H:\ManfredETheater\Project 1\Capture day 1\Session 1\subject.ASF
:FULLY-SPECIFIED
:DEGREES
174
root 1.37886 15.996 -3.65412 -6.03527 3.93517 0.22847
lowerback 4.42305 -0.624646 -3.35959
upperback 0.139564 -0.966241 1.53778
thorax -2.25503 -0.439425 3.53343
lowerneck -18.989 -1.84178 -2.51623
upperneck 23.3125 -1.90381 0.339034
head 10.6716 -1.05513 0.263911
rclavicle 2.48232e-014 8.74653e-015
rhumerus 25.6777 3.98219 -43.4108
rradius 69.3109
rwrist 9.49322
rhand 6.32091 -21.6312
rfingers 7.12502
rthumb 31.6291 -48.9108
lclavicle 2.48232e-014 8.74653e-015
lhumerus 25.1635 -1.96973 59.9471
lradius 74.7149
lwrist -23.3974
lhand 14.2532 16.2636
lfingers 7.12502
lthumb 39.1482 41.741
rfemur -15.5162 -15.8912 7.70778
rtibia 64.4622
rfoot -34.0878 0.895743
rtoes -12.944
lfemur -17.4945 5.10973 -10.6415
ltibia 64.3292
lfoot -35.2697 -3.08428
ltoes -13.2166
175
root 1.38039 15.9954 -3.65275 -6.04133 3.95171 0.223395
lowerback 4.42785 -0.632641 -3.35235
upperback 0.133664 -0.976508 1.54677
thorax -2.26288 -0.444325 3.53944
lowerneck -18.9732 -1.83764 -2.51398
upperneck 23.3173 -1.89193 0.31214
head 10.6698 -1.05293 0.255741
rclavicle -5.71506e-016 -1.19271e-014
rhumerus 25.6741 4.00225 -43.4066
rradius 69.3108
rwrist 9.46898
rhand 6.33644 -21.6539
rfingers 7.12502
rthumb 31.6438 -48.9306
lclavicle -5.71506e-016 -1.19271e-014
lhumerus 25.1465 -1.976 59.966
lradius 74.714
lwrist -23.399
lhand 14.2693 16.278
lfingers 7.12502
lthumb 39.1634 41.751
rfemur -15.4984 -15.9215 7.69552
rtibia 64.4669
rfoot -34.0901 0.897676
rtoes -12.9876
lfemur -17.483 5.09001 -10.6439
ltibia 64.336
lfoot -35.29 -3.06743
ltoes -13.2357
176
root 1.38133 15.9947 -3.65211 -6.03767 3.95907 0.218171
lowerback 4.43224 -0.635434 -3.35025
upperback 0.129526 -0.980114 1.55399
thorax -2.26922 -0.445914 3.54609
lowerneck -18.9869 -1.83754 -2.50763
upperneck 23.3315 -1.8876 0.29065
head 10.6773 -1.05309 0.247441
rclavicle 2.63887e-014 -5.56597e-015
rhumerus 25.6802 3.9969 -43.4174
rradius 69.3085
rwrist 9.49493
rhand 6.34158 -21.6354
rfingers 7.12502
rthumb 31.6487 -48.9111
lclavicle 2.63887e-014 -5.56597e-015
lhumerus 25.1154 -1.9843 59.975
lradius 74.7204
lwrist -23.411
lhand 14.2144 16.2941
lfingers 7.12502
lthumb 39.1116 41.7821
rfemur -15.5005 -15.9366 7.69397
rtibia 64.4731
rfoot -34.0926 0.905689
rtoes -13.0071
lfemur -17.4949 5.09299 -10.6404
ltibia 64.3453
lfoot -35.294 -3.05836
ltoes -13.3397
177
root 1.38249 15.9944 -3.65122 -6.0487 3.94382 0.194908
lowerback 4.43036 -0.634703 -3.3314
upperback 0.136929 -0.977755 1.56762
thorax -2.2608 -0.44517 3.5493
lowerneck -18.9924 -1.83062 -2.48854
upperneck 23.3342 -1.87501 0.258634
head 10.6787 -1.04962 0.234556
rclavicle 1.60767e-014 -1.51076e-014
rhumerus 25.6896 3.99698 -43.423
rradius 69.3056
rwrist 9.53483
rhand 6.36587 -21.6207
rfingers 7.12502
rthumb 31.6719 -48.8919
lclavicle 1.60767e-014 -1.51076e-014
lhumerus 25.0999 -1.97789 59.9844
lradius 74.7112
lwrist -23.4149
lhand 14.2098 16.279
lfingers 7.12502
lthumb 39.1073 41.7682
rfemur -15.4916 -15.9354 7.71221
rtibia 64.4727
rfoot -34.0923 0.921278
rtoes -12.9945
lfemur -17.4752 5.10741 -10.6106
ltibia 64.3481
lfoot -35.3081 -3.09264
ltoes -13.2068
178
root 1.38376 15.9943 -3.65003 -6.05812 3.96551 0.206343
lowerback 4.45892 -0.638263 -3.34331
upperback 0.11513 -0.98408 1.5683
thorax -2.29856 -0.447045 3.5579
lowerneck -18.9396 -1.83616 -2.49337
upperneck 23.3341 -1.87952 0.245892
head 10.6686 -1.05384 0.230559
rclavicle 1.94064e-014 -2.0276e-014
rhumerus 25.6651 4.01755 -43.4304
rradius 69.3027
rwrist 9.55362
rhand 6.3565 -21.6241
rfingers 7.12502
rthumb 31.663 -48.8971
lclavicle 1.94064e-014 -2.0276e-014
lhumerus 25.0613 -2.0025 60.0148
lradius 74.705
lwrist -23.4068
lhand 14.2307 16.2688
lfingers 7.12502
lthumb 39.127 41.7523
rfemur -15.4655 -15.9653 7.68001
rtibia 64.4696
rfoot -34.1007 0.935771
rtoes -13.0164
lfemur -17.4677 5.09796 -10.6286
ltibia 64.3551
lfoot -35.3136 -3.11062
ltoes -13.2072
179
root 1.38503 15.9945 -3.64919 -6.05346 3.96224 0.222642
lowerback 4.45066 -0.637285 -3.36105
upperback 0.119534 -0.983363 1.57036
thorax -2.28913 -0.446759 3.56981
lowerneck -18.9557 -1.83242 -2.47868
upperneck 23.3391 -1.87079 0.217875
head 10.6729 -1.05201 0.21918
rclavicle 1.31943e-014 -1.23246e-014
rhumerus 25.6672 4.01412 -43.4278
rradius 69.3047
rwrist 9.56779
rhand 6.32597 -21.6071
rfingers 7.12502
rthumb 31.6339 -48.8858
lclavicle 1.31943e-014 -1.23246e-014
lhumerus 25.0516 -2.00035 60.0327
lradius 74.7021
lwrist -23.4211
lhand 14.1902 16.2433
lfingers 7.12502
lthumb 39.0889 41.7378
rfemur -15.4639 -15.976 7.65184
rtibia 64.4657
rfoot -34.0972 0.960031
rtoes -12.9917
lfemur -17.4703 5.11247 -10.6518
ltibia 64.3598
lfoot -35.3199 -3.09815
ltoes -13.2686
